<?xml version="1.0" encoding="iso-8859-1"?>
<!-- Generator: Adobe Illustrator 18.0.0, SVG Export Plug-In . SVG Version: 6.00 Build 0)  -->
<!DOCTYPE svg PUBLIC "-//W3C//DTD SVG 1.1//EN" "http://www.w3.org/Graphics/SVG/1.1/DTD/svg11.dtd">
<svg version="1.1" id="Capa_1" xmlns="http://www.w3.org/2000/svg" xmlns:xlink="http://www.w3.org/1999/xlink" x="0px" y="0px"
	 viewBox="0 0 65.272 65.272" style="enable-background:new 0 0 65.272 65.272;" xml:space="preserve">
<path style="fill:#231F20;" d="M57.971,7.302c-4.708-4.708-10.977-7.301-17.65-7.301c-6.674,0-12.942,2.593-17.649,7.301
	L2.666,27.306C0.947,29.024,0,31.31,0,33.741c0.001,2.431,0.947,4.716,2.666,6.435c1.514,1.514,3.466,2.426,5.571,2.623
	c0.014,0.014,0.023,0.032,0.038,0.046l14.153,14.153c0.015,0.015,0.034,0.025,0.049,0.04c0.193,2.033,1.066,4.014,2.62,5.568
	c1.719,1.719,4.005,2.665,6.436,2.665c2.431,0,4.715-0.946,6.434-2.665l20.005-20.004c4.709-4.708,7.302-10.977,7.302-17.65
	C65.272,18.278,62.679,12.01,57.971,7.302z M14.769,40.855c0.265-0.212,0.523-0.436,0.766-0.679L35.54,20.17
	c1.274-1.274,2.972-1.975,4.78-1.975c0.747,0,1.472,0.126,2.16,0.356L17.472,43.559L14.769,40.855z M21.715,47.801l25.006-25.005
	c0.789,2.357,0.254,5.063-1.619,6.937L25.097,49.738c-0.245,0.245-0.468,0.502-0.679,0.766L21.715,47.801z M53.729,38.36
	L33.724,58.365c-1.174,1.171-3.215,1.169-4.385,0c-1.208-1.209-1.208-3.175,0-4.384l20.005-20.004
	C54.319,29,54.32,20.905,49.345,15.929c-2.408-2.407-5.612-3.733-9.024-3.733c-3.411,0-6.615,1.326-9.022,3.733L11.293,35.933
	c-1.172,1.171-3.213,1.17-4.385,0C6.323,35.347,6,34.569,6,33.741c0-0.828,0.322-1.606,0.908-2.192l20.005-20.005
	c3.574-3.574,8.336-5.543,13.407-5.543c5.071,0,9.833,1.969,13.408,5.544c3.575,3.574,5.544,8.336,5.544,13.407
	C59.272,30.023,57.304,34.784,53.729,38.36z"/>
<g>
</g>
<g>
</g>
<g>
</g>
<g>
</g>
<g>
</g>
<g>
</g>
<g>
</g>
<g>
</g>
<g>
</g>
<g>
</g>
<g>
</g>
<g>
</g>
<g>
</g>
<g>
</g>
<g>
</g>
</svg>
